# xmcd CD database file
#
# Track frame offsets:
#	150
#	21497
#	45350
#	70995
#	96849
#	126928
#	156882
#	181927
#	206095
#	227788
#	249681
#	274266
#
# Disc length: 3726 seconds
#
# Revision: 1
# Processed by: cddbd v1.5.1PL0 Copyright (c) Steve Scherf et al.
# Submitted via: CDex 1.51
#
DISCID=ad0e8c0c
DTITLE=Tal Farlow - The Complete Verve Tal Farlow Sessions Disk 4
DYEAR=2004
DGENRE=Jazz
TTITLE0=Taking a Chance on Love
TTITLE1=Yardbird Suite
TTITLE2=You Stepped Out of a Dream
TTITLE3=They Can't Take That Away From Me
TTITLE4=Like Someone in Love
TTITLE5=Meteor
TTITLE6=I Love You
TTITLE7=Gone With The Wind
TTITLE8=Taking a Chance on Love (alt)
TTITLE9=Yardbird Suite (alt)
TTITLE10=Gone With The Wind (alt)
TTITLE11=Taking a Chance on Love (breakdown)
EXTD=YEAR: 2004
EXTT0=
EXTT1=
EXTT2=
EXTT3=
EXTT4=
EXTT5=
EXTT6=
EXTT7=
EXTT8=
EXTT9=
EXTT10=
EXTT11=
PLAYORDER=
